<?xml version="1.0" encoding="UTF-8" standalone="no"?>
<svg
   width="571.93756"
   height="120"
   viewBox="0 0 571.93756 120"
   fill="none"
   version="1.1"
   id="svg214"
   sodipodi:docname="logo.svg"
   inkscape:version="1.2.2 (b0a8486541, 2022-12-01)"
   xmlns:inkscape="http://www.inkscape.org/namespaces/inkscape"
   xmlns:sodipodi="http://sodipodi.sourceforge.net/DTD/sodipodi-0.dtd"
   xmlns="http://www.w3.org/2000/svg"
   xmlns:svg="http://www.w3.org/2000/svg">
  <sodipodi:namedview
     id="namedview216"
     pagecolor="#ffffff"
     bordercolor="#666666"
     borderopacity="1.0"
     inkscape:showpageshadow="2"
     inkscape:pageopacity="0.0"
     inkscape:pagecheckerboard="0"
     inkscape:deskcolor="#d1d1d1"
     showgrid="true"
     showguides="true"
     inkscape:zoom="2.4708552"
     inkscape:cx="274.60128"
     inkscape:cy="82.15779"
     inkscape:window-width="2418"
     inkscape:window-height="1659"
     inkscape:window-x="1145"
     inkscape:window-y="374"
     inkscape:window-maximized="0"
     inkscape:current-layer="svg214">
    <inkscape:grid
       type="xygrid"
       id="grid658"
       originx="142.93757"
       originy="40.257304" />
  </sodipodi:namedview>
  <g
     clip-path="url(#clip0_49_991)"
     id="g207"
     transform="translate(142.93757,40.257304)">
    <path
       d="m 8.64488,27.3639 h 9.75042 v 7.4759 H 0 V 1.93156 h 8.64488 z"
       fill="#006633"
       id="path171" />
    <path
       d="m 26.2971,8.85303 c -1.2505,0 -2.3379,-0.42924 -3.226,-1.3056 -0.888,-0.85847 -1.323,-1.91368 -1.323,-3.16563 0,-1.21617 0.4531,-2.23561 1.3411,-3.09409 C 23.9773,0.429238 25.0466,0 26.2971,0 c 1.2143,0 2.2473,0.429238 3.1353,1.28771 0.87,0.85848 1.3231,1.89581 1.3231,3.09409 0,1.23406 -0.435,2.28927 -1.3231,3.16563 -0.8699,0.85848 -1.921,1.3056 -3.1353,1.3056 z M 22.0925,34.8577 V 11.1244 h 8.3367 v 23.7154 h -8.3367 z"
       fill="#006633"
       id="path173" />
    <path
       d="m 52.3586,11.1244 h 7.8475 v 21.605 c 0,2.4145 -0.3263,4.507 -0.9606,6.2418 -0.6343,1.7349 -1.5767,3.112 -2.791,4.1136 -1.2143,1.0015 -2.6098,1.7348 -4.2046,2.1998 -1.5768,0.465 -3.3891,0.6975 -5.4371,0.6975 -6.7056,0 -10.9828,-2.486 -12.8314,-7.4401 l 6.8688,-2.7543 c 0.6887,1.395 1.4499,2.4145 2.3198,3.0226 0.87,0.608 1.9755,0.9121 3.3166,0.9121 1.8486,0 3.2079,-0.5366 4.0778,-1.6097 0.8699,-1.073 1.3049,-2.6648 1.3049,-4.7752 v -1.8601 c -0.6887,0.7512 -1.613,1.3414 -2.7729,1.7885 -1.178,0.4472 -2.4467,0.6797 -3.8241,0.6797 -1.468,0 -2.8635,-0.2683 -4.1865,-0.8227 -1.323,-0.5545 -2.4829,-1.3235 -3.4797,-2.3072 -0.9968,-0.9837 -1.7942,-2.2177 -2.3741,-3.7022 -0.58,-1.4844 -0.87,-3.0941 -0.87,-4.8468 0,-1.7706 0.29,-3.3802 0.87,-4.8468 0.5799,-1.4666 1.3773,-2.6827 2.3741,-3.6485 1.0149,-0.9658 2.1748,-1.717 3.4979,-2.2535 1.323,-0.5366 2.7547,-0.8048 4.2408,-0.8048 1.5224,0 2.8817,0.2682 4.0778,0.7869 1.1962,0.5187 2.1023,1.2341 2.7367,2.1104 z m -4.8389,16.2932 c 1.4861,0 2.7185,-0.4829 3.7153,-1.4666 0.9968,-0.9837 1.4861,-2.2177 1.4861,-3.7022 0,-1.4844 -0.4893,-2.7364 -1.468,-3.72 -0.9787,-0.9837 -2.2292,-1.4845 -3.7153,-1.4845 -1.5043,0 -2.7548,0.5008 -3.7516,1.4845 -0.9786,0.9836 -1.468,2.2177 -1.468,3.72 0,1.4845 0.4894,2.7185 1.4862,3.7022 0.9786,0.9658 2.2291,1.4666 3.7153,1.4666 z"
       fill="#006633"
       id="path175" />
    <path
       d="m 82.661,11.1244 h 8.2824 v 23.7154 h -7.8112 l -0.2356,-2.7364 c -0.888,1.0195 -2.0117,1.8064 -3.3891,2.343 -1.3774,0.5365 -2.8816,0.8227 -4.5308,0.8227 -3.081,0 -5.4189,-0.7154 -6.9776,-2.1283 -1.5586,-1.413 -2.356,-3.434 -2.356,-6.063 V 11.1244 h 8.3005 v 14.2185 c 0,1.2162 0.3444,2.1104 1.0331,2.6649 0.6887,0.5544 1.5767,0.8227 2.6822,0.8227 3.2804,0 4.9477,-1.7706 4.9659,-5.3297 V 11.1244 Z"
       fill="#006633"
       id="path177" />
    <path
       d="m 104.79,14.7014 c 0.67,-1.0194 1.74,-1.9137 3.244,-2.6827 1.504,-0.7691 3.081,-1.1447 4.748,-1.1447 v 7.1361 c -1.395,0 -2.537,0.0894 -3.443,0.2504 -0.906,0.161 -1.668,0.4829 -2.302,0.93 -0.634,0.4471 -1.087,1.0552 -1.359,1.8243 -0.272,0.769 -0.417,1.7527 -0.417,2.9689 V 34.8398 H 96.8879 V 11.1244 h 7.9021 z"
       fill="#006633"
       id="path179" />
    <path
       d="m 120.322,8.85303 c -1.251,0 -2.338,-0.42924 -3.226,-1.3056 -0.888,-0.87636 -1.342,-1.91368 -1.342,-3.16563 0,-1.21617 0.454,-2.23561 1.342,-3.09409 C 117.984,0.429238 119.053,0 120.322,0 c 1.214,0 2.247,0.429238 3.135,1.28771 0.888,0.85848 1.323,1.89581 1.323,3.09409 0,1.23406 -0.435,2.28927 -1.323,3.16563 -0.888,0.87636 -1.939,1.3056 -3.135,1.3056 z M 116.099,34.8577 V 11.1244 h 8.337 v 23.7154 h -8.337 z"
       fill="#006633"
       id="path181" />
    <path
       d="m 151.476,28.8484 c 0,2.2535 0.181,4.0241 0.543,5.3118 v 0.6975 h -7.557 l -0.507,-2.4502 c -0.798,0.9658 -1.903,1.699 -3.317,2.164 -1.414,0.4829 -2.864,0.7154 -4.386,0.7154 -0.779,0 -1.504,-0.0715 -2.193,-0.1967 -0.689,-0.1252 -1.377,-0.3577 -2.048,-0.6796 -0.67,-0.322 -1.25,-0.7154 -1.722,-1.2162 -0.471,-0.4829 -0.869,-1.1089 -1.159,-1.8779 -0.29,-0.7691 -0.435,-1.6454 -0.435,-2.6291 0,-0.9658 0.145,-1.8421 0.453,-2.6291 0.308,-0.769 0.688,-1.4308 1.178,-1.9494 0.489,-0.5187 1.123,-1.0016 1.903,-1.4308 0.779,-0.4293 1.558,-0.7691 2.338,-1.0374 0.779,-0.2682 1.703,-0.5186 2.772,-0.7869 L 141.2,19.888 c 0.906,-0.2325 1.54,-0.4829 1.903,-0.7511 0.362,-0.2683 0.525,-0.6439 0.525,-1.091 0,-0.5008 -0.181,-0.9121 -0.562,-1.2341 -0.38,-0.3219 -0.797,-0.5186 -1.25,-0.6081 -0.453,-0.0894 -0.961,-0.143 -1.504,-0.143 -1.16,0 -2.084,0.2503 -2.773,0.7332 -0.689,0.5008 -1.142,1.3235 -1.359,2.486 l -7.286,-1.1804 c 0.58,-2.5933 1.83,-4.4891 3.751,-5.6874 1.922,-1.1983 4.658,-1.7885 8.192,-1.7885 0.761,0 1.468,0.0179 2.103,0.0716 0.652,0.0536 1.359,0.1609 2.102,0.3219 0.743,0.161 1.414,0.3577 2.012,0.626 0.598,0.2683 1.178,0.6081 1.739,1.0552 0.562,0.4471 1.034,0.9658 1.414,1.5739 0.381,0.5902 0.689,1.3234 0.906,2.1998 0.218,0.8764 0.345,1.8422 0.345,2.9153 v 9.4611 z m -12.56,1.0909 c 1.251,0 2.429,-0.4828 3.516,-1.4486 1.088,-0.9658 1.631,-2.2893 1.631,-3.9705 l -5.419,1.7885 c -0.688,0.2325 -1.196,0.465 -1.558,0.7333 -0.363,0.2683 -0.544,0.626 -0.544,1.1089 0,0.5544 0.236,0.9836 0.689,1.3056 0.453,0.3219 1.015,0.4828 1.685,0.4828 z"
       fill="#006633"
       id="path183" />
    <path
       d="m 185.367,34.8577 h -10.258 l -8.7,-14.1112 v 14.1112 h -8.644 V 1.93156 h 12.777 c 1.939,0 3.642,0.26828 5.092,0.78694 1.468,0.51866 2.628,1.25194 3.498,2.19984 0.87,0.94791 1.522,2.021 1.939,3.21929 0.417,1.19829 0.635,2.52177 0.635,3.97047 0,2.2356 -0.617,4.0599 -1.831,5.437 -1.214,1.3771 -2.863,2.3071 -4.929,2.7543 z M 173.459,12.1796 c 0,-2.19982 -1.449,-3.2908 -4.349,-3.2908 h -2.701 v 6.5995 h 2.701 c 2.9,0.0179 4.349,-1.0909 4.349,-3.3087 z"
       fill="#009640"
       id="path185" />
    <path
       d="m 192.562,8.85303 c -1.251,0 -2.338,-0.42924 -3.226,-1.3056 -0.888,-0.85847 -1.342,-1.91368 -1.342,-3.16563 0,-1.21617 0.454,-2.23561 1.342,-3.09409 C 190.224,0.429238 191.311,0 192.562,0 c 1.214,0 2.247,0.429238 3.135,1.28771 0.888,0.85848 1.323,1.89581 1.323,3.09409 0,1.23406 -0.435,2.28927 -1.323,3.16563 -0.888,0.87636 -1.939,1.3056 -3.135,1.3056 z M 188.339,34.8577 V 11.1244 h 8.337 v 23.7154 h -8.337 z"
       fill="#009640"
       id="path187" />
    <path
       d="m 218.569,10.6773 c 3.081,0 5.419,0.7154 6.977,2.1283 1.559,1.4129 2.356,3.4339 2.356,6.063 v 15.9712 h -8.3 V 20.6213 c 0,-1.2162 -0.345,-2.1104 -1.033,-2.6648 -0.689,-0.5545 -1.577,-0.8228 -2.683,-0.8228 -3.28,0 -4.947,1.7707 -4.965,5.3298 v 12.3942 h -8.283 V 11.1244 h 8.283 v 2.4502 c 1.848,-1.9315 4.404,-2.8973 7.648,-2.8973 z"
       fill="#009640"
       id="path189" />
    <path
       d="m 249.342,10.6773 c 3.081,0 5.419,0.7154 6.978,2.1283 1.558,1.4129 2.356,3.4339 2.356,6.063 v 15.9712 h -8.301 V 20.6213 c 0,-1.2162 -0.344,-2.1104 -1.033,-2.6648 -0.688,-0.5545 -1.576,-0.8228 -2.682,-0.8228 -3.28,0 -4.948,1.7707 -4.966,5.3298 v 12.3942 h -8.282 V 11.1244 h 8.282 v 2.4502 c 1.849,-1.9315 4.404,-2.8973 7.648,-2.8973 z"
       fill="#009640"
       id="path191" />
    <path
       d="m 276.002,35.3048 c -4.15,0 -7.485,-1.091 -10.004,-3.2729 -2.519,-2.182 -3.788,-5.2045 -3.788,-9.0498 0,-2.5575 0.58,-4.7574 1.74,-6.6353 1.16,-1.86 2.773,-3.2729 4.839,-4.2387 2.066,-0.9658 4.458,-1.4308 7.213,-1.4308 4.186,0 7.557,1.091 10.077,3.255 2.519,2.1641 3.787,5.1867 3.787,9.0319 0,3.8453 -1.268,6.8678 -3.806,9.0498 -2.519,2.1998 -5.872,3.2908 -10.058,3.2908 z m -0.091,-6.367 c 1.758,0 3.154,-0.5544 4.169,-1.6454 1.033,-1.091 1.54,-2.5397 1.54,-4.3103 0,-1.7885 -0.507,-3.2372 -1.54,-4.3281 -1.033,-1.091 -2.429,-1.6454 -4.169,-1.6454 -1.649,0 -2.972,0.5544 -3.969,1.6632 -0.997,1.1089 -1.504,2.5397 -1.504,4.3282 0,1.7885 0.507,3.2193 1.504,4.3103 0.997,1.0731 2.32,1.6275 3.969,1.6275 z"
       fill="#009640"
       id="path193" />
    <path
       d="m 308.987,11.1244 h 8.735 L 307.21,34.8398 h -7.267 l -10.33,-23.7154 h 8.699 l 5.31,14.5762 z"
       fill="#009640"
       id="path195" />
    <path
       d="m 340.485,28.8484 c 0,2.2535 0.181,4.0241 0.544,5.3118 v 0.6975 h -7.558 l -0.507,-2.4502 c -0.798,0.9658 -1.903,1.699 -3.317,2.164 -1.413,0.4651 -2.863,0.7154 -4.386,0.7154 -0.779,0 -1.504,-0.0715 -2.193,-0.1967 -0.688,-0.1252 -1.377,-0.3577 -2.047,-0.6796 -0.671,-0.322 -1.251,-0.7154 -1.722,-1.2162 -0.471,-0.4829 -0.87,-1.1089 -1.16,-1.8779 -0.29,-0.7691 -0.435,-1.6454 -0.435,-2.6291 0,-0.9658 0.145,-1.8421 0.453,-2.6291 0.308,-0.7869 0.689,-1.4308 1.178,-1.9494 0.489,-0.5187 1.124,-1.0016 1.903,-1.4308 0.779,-0.4293 1.559,-0.7691 2.338,-1.0374 0.779,-0.2682 1.704,-0.5186 2.773,-0.7869 l 3.86,-0.9658 c 0.906,-0.2325 1.541,-0.4829 1.903,-0.7511 0.363,-0.2683 0.526,-0.6439 0.526,-1.091 0,-0.5008 -0.182,-0.9121 -0.562,-1.2341 -0.381,-0.3219 -0.798,-0.5186 -1.251,-0.6081 -0.453,-0.0894 -0.96,-0.143 -1.504,-0.143 -1.16,0 -2.084,0.2503 -2.773,0.7332 -0.689,0.5008 -1.142,1.3235 -1.359,2.486 l -7.286,-1.1804 c 0.58,-2.5933 1.831,-4.4891 3.752,-5.6874 1.921,-1.1983 4.658,-1.7885 8.192,-1.7885 0.761,0 1.468,0.0179 2.102,0.0716 0.652,0.0536 1.359,0.1609 2.102,0.3219 0.743,0.161 1.414,0.3577 2.012,0.626 0.598,0.2683 1.178,0.6081 1.74,1.0552 0.562,0.4471 1.033,0.9658 1.413,1.5739 0.381,0.5902 0.689,1.3234 0.907,2.1998 0.235,0.8585 0.344,1.8422 0.344,2.9153 v 9.4611 z m -12.541,1.0909 c 1.25,0 2.428,-0.4828 3.516,-1.4486 1.087,-0.9658 1.631,-2.2893 1.631,-3.9705 l -5.419,1.7885 c -0.689,0.2325 -1.196,0.465 -1.559,0.7333 -0.362,0.2683 -0.543,0.626 -0.543,1.1089 0,0.5544 0.235,0.9836 0.688,1.3056 0.435,0.3219 0.997,0.4828 1.686,0.4828 z"
       fill="#009640"
       id="path197" />
    <path
       d="m 361.001,10.6773 c 1.595,0 3.117,0.2862 4.531,0.8406 1.413,0.5544 2.664,1.3592 3.751,2.3787 1.07,1.0194 1.921,2.325 2.538,3.9168 0.616,1.5739 0.924,3.3445 0.924,5.2581 0,1.9137 -0.308,3.6843 -0.924,5.2582 -0.617,1.5739 -1.468,2.8795 -2.538,3.9168 -1.069,1.0373 -2.32,1.8243 -3.751,2.3787 -1.414,0.5544 -2.936,0.8406 -4.531,0.8406 -1.541,0 -2.936,-0.2504 -4.169,-0.7333 -1.232,-0.5008 -2.174,-1.1983 -2.809,-2.1283 l -0.181,2.2535 h -7.811 V 0.447128 h 8.282 V 13.1454 c 0.689,-0.8048 1.613,-1.4129 2.791,-1.8421 1.178,-0.4114 2.483,-0.626 3.897,-0.626 z m -1.939,18.0816 c 1.576,0 2.863,-0.5007 3.896,-1.5202 1.015,-1.0194 1.541,-2.3966 1.541,-4.1672 0,-1.7706 -0.508,-3.1477 -1.541,-4.1671 -1.015,-1.0195 -2.32,-1.5203 -3.896,-1.5203 -1.595,0 -2.9,0.5008 -3.915,1.5203 -1.015,1.0194 -1.541,2.3965 -1.541,4.1671 0,1.7706 0.508,3.1478 1.541,4.1672 1.015,1.0195 2.32,1.5202 3.915,1.5202 z"
       fill="#009640"
       id="path199" />
    <path
       d="m 381.063,8.85303 c -1.25,0 -2.337,-0.42924 -3.225,-1.3056 -0.889,-0.87636 -1.342,-1.91368 -1.342,-3.16563 0,-1.21617 0.453,-2.23561 1.342,-3.09409 C 378.726,0.429238 379.813,0 381.063,0 c 1.215,0 2.248,0.429238 3.136,1.28771 0.87,0.85848 1.323,1.89581 1.323,3.09409 0,1.23406 -0.435,2.28927 -1.323,3.16563 -0.87,0.85848 -1.921,1.3056 -3.136,1.3056 z M 376.859,34.8577 V 11.1244 h 8.337 v 23.7154 h -8.337 z"
       fill="#009640"
       id="path201" />
    <path
       d="M 391.122,34.8577 V 0.447128 h 8.373 V 34.8577 Z"
       fill="#009640"
       id="path203" />
    <path
       d="m 429,22.7317 -0.091,1.8779 h -17.163 c 0.164,1.413 0.725,2.5039 1.65,3.2551 0.924,0.7512 2.102,1.1267 3.479,1.1267 2.157,0 3.571,-0.8405 4.223,-2.5396 l 7.63,0.9658 c -0.725,2.5039 -2.138,4.4533 -4.241,5.8305 -2.102,1.3771 -4.621,2.0567 -7.557,2.0567 -4.169,0 -7.449,-1.0731 -9.823,-3.2371 -2.374,-2.1641 -3.57,-5.1688 -3.57,-9.0319 0,-3.8632 1.196,-6.9036 3.588,-9.0856 2.392,-2.1819 5.564,-3.2908 9.533,-3.2908 1.794,0 3.425,0.2325 4.893,0.6975 1.468,0.465 2.755,1.1804 3.879,2.1283 1.123,0.9479 1.993,2.2178 2.628,3.7916 0.616,1.556 0.942,3.3803 0.942,5.4549 z m -12.288,-6.4564 c -2.573,0 -4.15,1.0552 -4.712,3.1656 h 8.899 c -0.236,-1.0194 -0.707,-1.7885 -1.45,-2.3429 -0.761,-0.5366 -1.667,-0.8227 -2.737,-0.8227 z"
       fill="#009640"
       id="path205" />
  </g>
  <defs
     id="defs212">
    <clipPath
       id="clip0_49_991">
      <rect
         width="429"
         height="46"
         fill="#ffffff"
         id="rect209"
         x="0"
         y="0" />
    </clipPath>
    <clipPath
       id="clip0_49_969">
      <rect
         width="120"
         height="120"
         fill="#ffffff"
         id="rect39"
         x="0"
         y="0" />
    </clipPath>
    <linearGradient
       id="paint0_linear_49_969"
       x1="110.277"
       y1="45.575001"
       x2="2.30633"
       y2="76.535202"
       gradientUnits="userSpaceOnUse">
      <stop
         stop-color="#009FE3"
         id="stop30" />
      <stop
         offset="0.4033"
         stop-color="#009AA0"
         id="stop32" />
      <stop
         offset="0.8154"
         stop-color="#009759"
         id="stop34" />
      <stop
         offset="1"
         stop-color="#009640"
         id="stop36" />
    </linearGradient>
  </defs>
  <g
     clip-path="url(#clip0_49_969)"
     id="g28">
    <path
       d="m 120,59.8252 c 0,5.3631 -0.804,10.5383 -2.295,15.4119 l -1.578,0.8218 c -3.239,1.6871 -6.998,3.1383 -11.771,4.5414 2.968,-6.3073 4.625,-13.3489 4.625,-20.7751 0,-26.9819 -21.8636,-48.8585 -48.8367,-48.8585 -7.8721,0 -15.3115,1.862 -21.8941,5.1752 C 46.6031,10.534 56.6562,7.26889 67.47,7.26889 96.48,7.26452 120,30.7977 120,59.8252 Z"
       fill="#bac5cd"
       id="path2" />
    <path
       d="M 42.1752,87.2966 41.1918,54.7855 38.7309,54.9166 38.5211,88.1227"
       fill="#f28e34"
       id="path4" />
    <path
       d="M 41.8081,48.3995 C 41.83,47.7701 37.9792,30.837 37.4852,29.2941 c -0.5594,-1.7353 -2.7799,-1.744 -2.7799,-1.744 l 3.8508,25.6574 H 40.947 L 40.5143,50.161 c 0,0 1.272,-1.1321 1.2938,-1.7615 z"
       fill="#f28e34"
       id="path6" />
    <path
       d="m 40.0029,51.4286 c 1.3594,0.0961 2.3822,1.2763 2.286,2.6357 -0.0961,1.3593 -1.2763,2.3821 -2.6357,2.286 -1.3593,-0.0962 -2.3821,-1.2764 -2.286,-2.6357 0.0962,-1.355 1.2763,-2.3822 2.6357,-2.286 z"
       fill="#f28e34"
       id="path8" />
    <path
       d="m 33.394,54.2041 c -0.5813,0.2448 -14.3673,10.8006 -15.5649,11.8934 -1.3463,1.2326 -0.4284,3.252 -0.4284,3.252 L 39.12,55.1526 l -0.9966,-2.1723 -2.592,1.6653 c 0,-0.0044 -1.556,-0.6863 -2.1374,-0.4415 z"
       fill="#f28e34"
       id="path10" />
    <path
       d="m 44.317,57.9019 c 0.5552,0.3016 17.4183,4.4322 19.0224,4.677 1.8052,0.2753 2.8018,-1.7047 2.8018,-1.7047 l -24.674,-8.0294 -1.0709,2.1374 2.9198,0.9747 c 0.0044,0 0.4458,1.6434 1.0009,1.945 z"
       fill="#f28e34"
       id="path12" />
    <path
       d="m 83.5113,34.4343 c 0.319,-0.6644 4.2048,-20.6134 4.4015,-22.5016 0.2229,-2.12429 -2.1505,-3.18206 -2.1505,-3.18206 l -8.0032,29.29846 2.5614,1.1321 0.9791,-3.4662 c -0.0044,-0.0044 1.8926,-0.6163 2.2117,-1.2807 z"
       fill="#f28e34"
       id="path14" />
    <path
       d="m 79.0485,36.5892 c 1.7003,0.118 2.981,1.5954 2.8586,3.2957 -0.118,1.7003 -1.5954,2.981 -3.2957,2.8586 -1.7003,-0.118 -2.9809,-1.5954 -2.8586,-3.2957 0.1224,-1.6959 1.5954,-2.9766 3.2957,-2.8586 z"
       fill="#f28e34"
       id="path16" />
    <path
       d="m 72.09,38.3813 c -0.7343,0.1093 -19.4944,8.1518 -21.1729,9.0522 -1.8882,1.0141 -1.4205,3.558 -1.4205,3.558 l 28.857,-9.9177 -0.5114,-2.7362 -3.4312,1.1495 C 74.4022,39.4828 72.8199,38.272 72.09,38.3813 Z"
       fill="#f28e34"
       id="path18" />
    <path
       d="m 82.2874,46.0698 c 0.4677,0.5682 16.9855,12.4135 18.6206,13.3795 1.84,1.0883 3.789,-0.6294 3.789,-0.6294 l -23.2969,-19.4857 -2.0936,1.8576 2.7449,2.3341 c 0.0044,0 -0.2317,1.9757 0.236,2.5439 z"
       fill="#f28e34"
       id="path20" />
    <path
       d="M 75.7529,89.4514 77.1909,41.17 h 2.9679 l 0.3059,49.4004"
       fill="#f28e34"
       id="path22" />
    <path
       d="M 104.112,83.0349 C 94.0934,85.9022 84.7352,84.3637 74.9967,81.3739 65.6123,78.4935 55.546,75.1759 45.825,78.5678 c -8.4796,2.9591 -14.4372,9.1921 -18.2968,14.7345 1.3244,1.4599 2.9242,3.0771 4.7993,4.7337 3.3657,2.972 7.6273,6.08 12.82,8.668 5.9664,2.981 13.1609,5.28 21.6275,5.918 1.1583,0.087 2.3209,0.14 3.488,0.166 5.2539,0.105 10.5165,-0.437 15.6611,-1.495 -5.9751,2.325 -12.4572,3.641 -19.2366,3.724 C 54.3833,114.86 43.0538,110.659 33.9623,103.683 29.093,99.9461 24.8663,95.4134 21.4745,90.2732 15.7442,81.5881 12.4047,71.1853 12.4047,60 c 0,-11.1853 3.3351,-21.5881 9.0654,-30.2732 C 31.3091,14.8175 48.2072,4.97851 67.4,4.97851 c 13.2046,0 25.3209,4.65506 34.797,12.41349 C 91.3572,6.64384 76.4391,0 59.9738,0 26.8507,0 0,26.8638 0,60 c 0,19.4114 9.21396,36.6722 23.507,47.639 0.4502,0.345 0.9091,0.686 1.3681,1.018 10.1668,7.352 22.554,11.343 35.0987,11.343 16.4697,0 31.3877,-6.639 42.2232,-17.396 3.16,-3.1343 5.975,-6.618 8.379,-10.3901 2.78,-4.3622 5.014,-9.1091 6.6,-14.14 -4.135,2.1461 -8.619,3.689 -13.064,4.961 z"
       fill="#006633"
       id="path24" />
    <path
       d="m 102.197,102.604 c 3.16,-3.1343 5.975,-6.618 8.379,-10.3901 2.78,-4.3579 5.009,-9.1047 6.596,-14.1313 -3.969,2.4303 -8.335,4.2835 -12.68,5.8615 -9.7954,3.5579 -19.2367,2.675 -29.1631,0.3759 -9.5636,-2.2161 -19.8353,-4.8256 -29.2941,-0.765 -6.8711,2.9504 -11.8409,8.0426 -15.3114,13.0123 0.5114,0.4852 1.0447,0.9748 1.6041,1.4687 3.3657,2.972 7.6273,6.08 12.82,8.668 5.9664,2.981 13.1609,5.28 21.6275,5.918 1.1583,0.087 2.3209,0.14 3.488,0.166 5.2539,0.105 10.5165,-0.437 15.6611,-1.495 -5.9751,2.325 -12.4572,3.641 -19.2365,3.724 C 54.3833,114.86 43.0538,110.659 33.9623,103.683 29.093,99.9461 24.8663,95.4134 21.4745,90.2732 15.7442,81.5881 12.4047,71.1853 12.4047,60 c 0,-11.1853 3.3351,-21.5881 9.0654,-30.2732 C 31.3091,14.8175 48.2072,4.97851 67.4,4.97851 c 13.2047,0 25.3209,4.65506 34.797,12.41349 C 91.3572,6.64384 76.4391,0 59.9738,0 26.8507,0 0,26.8638 0,60 c 0,19.4114 9.21396,36.6722 23.507,47.639 0.4502,0.345 0.9091,0.686 1.3681,1.018 10.1668,7.352 22.5541,11.343 35.0987,11.343 16.4653,0 31.3834,-6.639 42.2232,-17.396 z"
       fill="url(#paint0_linear_49_969)"
       id="path26"
       style="fill:url(#paint0_linear_49_969)" />
  </g>
</svg>
